<?xml version="1.0" standalone="no"?>
<!DOCTYPE svg PUBLIC "-//W3C//DTD SVG 20010904//EN"
 "http://www.w3.org/TR/2001/REC-SVG-20010904/DTD/svg10.dtd">
<svg version="1.0" xmlns="http://www.w3.org/2000/svg"
 width="281.000000pt" height="281.000000pt" viewBox="0 0 281.000000 281.000000"
 preserveAspectRatio="xMidYMid meet">
<metadata>
Created by potrace 1.11, written by Peter Selinger 2001-2013
</metadata>
<g transform="translate(0.000000,281.000000) scale(0.100000,-0.100000)"
fill="#000000" stroke="none">
<path d="M1340 2758 c0 -16 -22 -19 -36 -5 -4 4 -18 0 -32 -9 -13 -9 -22 -11
-18 -6 7 12 -32 10 -52 -2 -7 -4 -12 -4 -12 1 0 4 -5 1 -10 -7 -7 -11 -10 -11
-10 -2 0 10 -5 10 -20 2 -11 -6 -25 -8 -30 -5 -6 3 -10 1 -10 -5 0 -7 -7 -10
-15 -7 -8 4 -17 2 -20 -3 -3 -5 -13 -6 -22 -3 -12 5 -14 3 -8 -6 5 -10 2 -11
-14 -6 -12 4 -21 2 -21 -4 0 -6 -3 -10 -7 -10 -20 3 -44 -2 -40 -8 3 -5 -9 -9
-26 -10 -17 -1 -33 -6 -36 -10 -10 -13 -54 -35 -47 -24 4 7 1 8 -8 5 -9 -3
-16 -12 -16 -19 0 -7 -8 -12 -17 -11 -10 0 -17 -4 -16 -11 2 -7 -4 -10 -12 -7
-8 3 -29 -6 -48 -20 -19 -14 -38 -26 -44 -26 -5 0 -18 -9 -28 -20 -10 -11 -24
-20 -32 -20 -7 0 -13 -5 -13 -11 0 -5 -4 -7 -10 -4 -5 3 -10 -1 -10 -9 0 -9
-5 -16 -11 -16 -6 0 -29 -18 -51 -40 -21 -23 -43 -38 -49 -35 -5 4 -9 3 -8 -2
3 -20 -2 -34 -11 -28 -5 3 -10 2 -10 -4 0 -6 -16 -26 -35 -46 -20 -19 -33 -35
-30 -35 3 0 -6 -11 -20 -25 -23 -24 -29 -37 -26 -57 0 -4 -7 -4 -16 -1 -11 4
-14 3 -9 -5 4 -7 2 -12 -4 -12 -6 0 -8 -4 -5 -10 3 -5 1 -10 -4 -10 -6 0 -11
-7 -11 -15 0 -8 -5 -15 -11 -15 -5 0 -7 -4 -4 -10 3 -5 1 -10 -4 -10 -6 0 -11
-5 -11 -11 0 -7 -8 -18 -17 -26 -11 -9 -12 -12 -3 -7 12 6 13 4 2 -7 -6 -7
-12 -21 -12 -32 0 -10 -4 -16 -9 -13 -5 3 -12 -1 -15 -10 -4 -10 -2 -13 6 -8
7 4 2 -6 -10 -23 -12 -17 -19 -33 -15 -37 3 -3 1 -6 -6 -6 -8 0 -11 -7 -7 -15
3 -8 1 -15 -4 -15 -6 0 -10 -11 -10 -24 0 -14 -5 -28 -10 -31 -6 -3 -10 -23
-10 -43 0 -28 -3 -33 -10 -22 -8 11 -9 8 -4 -12 4 -21 2 -29 -10 -34 -15 -6
-15 -8 1 -20 11 -8 13 -13 5 -14 -6 0 -11 -3 -11 -7 1 -5 0 -10 -1 -13 -1 -3
-3 -31 -5 -63 -1 -38 -7 -62 -16 -68 -8 -5 -9 -9 -4 -9 6 0 11 -13 10 -29 0
-16 -3 -27 -7 -24 -5 2 -8 0 -8 -6 0 -5 6 -12 13 -14 8 -4 7 -6 -3 -6 -13 -1
-13 -3 -1 -10 12 -8 12 -12 2 -25 -10 -12 -11 -16 -1 -16 7 0 10 -6 7 -14 -3
-7 -1 -18 5 -24 6 -6 6 -12 -3 -17 -8 -6 -10 -4 -4 5 5 8 4 11 -3 6 -6 -4 -9
-13 -6 -21 4 -8 10 -13 14 -10 4 3 4 -11 0 -30 -7 -29 -5 -35 9 -35 13 0 13
-2 2 -9 -9 -6 -10 -10 -2 -16 9 -5 9 -11 -1 -23 -11 -13 -11 -14 1 -7 11 6 13
4 8 -8 -3 -9 -2 -19 3 -22 5 -3 6 -13 3 -22 -5 -12 -3 -14 8 -8 12 7 12 6 1
-7 -9 -11 -10 -18 -2 -23 5 -3 10 -14 10 -24 0 -10 7 -31 14 -47 8 -15 13 -31
10 -36 -3 -4 -1 -8 5 -8 6 0 8 -6 5 -14 -3 -7 1 -20 9 -28 8 -8 18 -29 22 -46
3 -18 11 -32 16 -32 6 0 7 -4 4 -10 -3 -5 -1 -10 5 -10 6 0 8 -4 5 -10 -3 -5
-1 -10 5 -10 6 0 8 -4 5 -10 -3 -5 3 -17 15 -27 11 -10 20 -25 20 -35 0 -10 5
-18 10 -18 6 0 10 -7 10 -16 0 -8 5 -12 10 -9 6 3 10 -3 10 -14 0 -11 8 -25
18 -30 9 -6 13 -11 8 -11 -5 0 5 -13 22 -30 18 -16 29 -30 26 -30 -4 0 -1 -7
6 -15 7 -8 17 -12 23 -8 5 3 7 2 4 -4 -4 -5 3 -20 14 -31 11 -12 16 -22 12
-22 -4 0 -1 -5 7 -10 12 -8 12 -10 -5 -11 -11 0 -14 -3 -8 -6 9 -3 10 -10 3
-23 -7 -13 -6 -20 3 -23 9 -4 8 -8 -3 -16 -12 -9 -13 -12 -1 -20 11 -7 11 -9
0 -14 -9 -3 -7 -6 6 -6 17 -1 17 -3 5 -11 -8 -5 -11 -10 -6 -10 5 0 2 -8 -5
-17 -10 -11 -10 -14 -1 -9 12 7 15 0 15 -36 0 -10 4 -18 9 -18 6 0 8 -7 5 -15
-4 -8 -2 -17 4 -20 5 -4 7 -11 4 -16 -4 -5 -1 -9 5 -9 7 0 10 -5 8 -12 -2 -6
4 -20 14 -30 10 -10 16 -22 14 -27 -3 -4 6 -14 19 -21 14 -7 27 -22 31 -32 3
-10 9 -16 14 -13 5 3 12 0 17 -8 4 -7 17 -13 28 -13 11 0 19 -4 18 -10 -1 -5
7 -10 18 -10 10 0 19 5 19 11 0 5 4 4 9 -4 6 -9 30 -16 58 -18 76 -5 77 -5 91
-16 9 -7 11 -6 6 7 -8 20 0 21 20 0 9 -8 16 -11 16 -7 0 5 25 9 55 8 30 0 55
2 55 7 0 4 6 5 14 2 8 -3 17 0 21 6 5 8 11 8 21 -1 8 -6 14 -7 14 -2 0 8 8 10
65 15 14 1 25 6 25 11 0 4 4 6 9 2 6 -3 19 5 30 17 12 12 21 18 21 13 0 -5 7
0 15 12 13 18 20 20 45 13 20 -6 30 -5 34 3 3 9 5 9 5 0 1 -7 8 -10 18 -6 12
5 14 3 8 -8 -7 -11 -6 -12 6 -3 21 16 72 17 63 1 -6 -9 -5 -9 7 0 12 10 18 10
29 0 10 -9 11 -9 6 1 -6 9 2 13 31 12 68 -1 77 1 85 13 6 9 8 9 8 -1 0 -7 5
-10 11 -7 5 4 25 9 42 12 18 3 37 6 42 6 6 1 13 7 17 12 5 6 8 5 8 -4 0 -10 3
-11 13 -2 8 6 17 8 20 4 4 -3 7 -1 7 7 0 10 3 10 16 0 12 -11 15 -11 12 1 -2
9 5 14 20 13 12 -1 22 3 22 8 0 5 5 6 10 3 6 -3 10 -2 10 4 0 6 7 7 17 4 9 -4
14 -2 10 3 -3 6 6 9 21 9 15 -1 35 7 45 17 10 10 22 16 28 13 5 -4 9 -1 9 5 0
6 5 8 10 5 6 -3 10 -1 10 4 0 6 9 11 20 11 11 0 20 3 20 8 0 4 15 14 32 21 52
23 137 85 131 95 -4 5 -1 6 5 2 6 -3 22 5 35 18 14 14 28 22 31 19 3 -4 6 1 6
10 0 10 5 17 10 17 6 0 30 19 53 42 23 23 45 41 50 40 4 -1 6 2 5 7 -2 5 6 17
17 26 11 9 13 13 5 9 -13 -7 -13 -5 -1 9 7 9 18 14 23 10 6 -3 9 0 6 8 -2 7 6
24 18 36 12 12 25 31 29 42 3 10 13 22 21 25 8 3 13 10 9 15 -3 6 4 15 16 21
11 7 18 14 15 17 -3 3 6 25 20 49 14 24 23 44 19 44 -3 0 1 7 9 16 9 8 14 20
11 25 -4 5 -1 9 4 9 6 0 10 3 10 8 -3 18 2 33 10 28 4 -3 7 5 7 17 -1 12 3 29
10 37 7 8 13 18 13 23 1 4 1 8 2 10 4 12 10 44 11 55 1 6 6 12 12 12 6 0 4 5
-4 10 -8 5 -10 10 -4 10 11 0 13 7 16 55 1 14 7 25 13 25 5 0 3 5 -5 10 -9 6
-10 10 -3 10 6 0 10 9 8 20 -2 11 0 20 5 20 4 0 6 9 3 20 -3 13 0 20 8 20 11
0 11 2 -1 10 -13 9 -13 11 0 20 11 7 11 10 2 10 -9 0 -10 5 -2 19 7 14 7 22 0
26 -8 5 -8 11 -1 19 7 9 7 16 -1 24 -9 9 -9 12 1 12 11 0 11 3 0 17 -12 14
-12 15 -1 9 11 -7 12 -4 3 12 -13 24 -14 35 -3 28 4 -2 8 4 8 15 0 10 -4 19
-9 19 -5 0 -3 8 4 17 8 9 9 14 3 10 -7 -4 -14 0 -18 8 -3 8 0 15 6 15 7 0 7 4
-1 13 -6 8 -8 17 -5 20 4 3 3 14 -2 24 -9 21 -13 46 -15 91 0 17 -5 35 -10 38
-5 3 -9 16 -9 30 0 13 -4 24 -8 24 -5 0 -9 7 -10 15 -1 8 -3 22 -4 30 -1 8 -5
15 -10 15 -4 0 -8 9 -8 20 0 11 -6 20 -12 20 -10 0 -10 2 0 9 11 7 10 9 -3 15
-9 3 -13 10 -10 16 3 5 1 10 -4 10 -6 0 -10 3 -9 8 4 15 -14 52 -22 47 -5 -3
-7 4 -5 15 2 11 0 20 -6 20 -5 0 -9 7 -9 15 0 8 -4 15 -10 15 -5 0 -10 7 -10
15 0 8 -4 15 -10 15 -5 0 -10 7 -10 15 0 8 -4 15 -10 15 -5 0 -10 9 -10 21 0
11 -5 17 -10 14 -5 -3 -10 1 -10 10 0 10 -5 13 -12 9 -7 -4 -8 -3 -4 4 4 7 -8
26 -28 46 -19 18 -32 36 -29 40 4 3 -1 6 -10 6 -10 0 -17 7 -17 16 0 10 -6 14
-14 11 -10 -4 -13 0 -11 14 2 11 0 17 -6 14 -5 -4 -9 -2 -9 4 0 5 -9 13 -20
16 -11 3 -20 13 -20 22 0 10 -6 13 -17 9 -10 -4 -14 -4 -11 0 4 3 0 14 -9 23
-9 9 -18 14 -20 11 -1 -3 -10 5 -18 18 -9 12 -23 22 -31 22 -8 0 -14 5 -14 10
0 6 -7 10 -15 10 -9 0 -18 7 -21 15 -4 8 -10 12 -15 9 -5 -3 -9 -1 -9 4 0 13
-75 52 -100 52 -10 0 -22 4 -25 10 -3 6 1 7 12 4 17 -5 17 -5 0 6 -18 12 -39
18 -65 19 -7 1 -11 5 -8 9 5 8 -1 10 -43 14 -11 1 -17 6 -15 10 3 4 -6 8 -20
8 -14 0 -26 6 -26 13 0 8 -3 7 -10 -3 -8 -12 -10 -12 -15 2 -4 10 -15 15 -26
13 -10 -2 -19 0 -19 5 0 5 -9 7 -20 5 -11 -2 -20 -1 -20 3 0 4 -10 8 -23 9
-33 3 -51 8 -64 16 -8 5 -13 3 -13 -4 0 -10 -3 -10 -12 -1 -16 16 -31 15 -22
0 6 -10 4 -10 -7 -2 -8 6 -24 10 -37 9 -13 -1 -24 1 -26 4 -2 3 -37 6 -78 5
-43 -1 -76 3 -80 10 -5 7 -8 5 -8 -6z"/>
</g>
</svg>
